HIERARCHY
ROOT Hips
{
	OFFSET	0.00	0.00	0.00
	CHANNELS 6 Xposition Yposition Zposition Zrotation Xrotation Yrotation
	JOINT LeftUpLeg
	{
		OFFSET	 0.126116	-0.014019	-0.065224
		CHANNELS 3 Zrotation Xrotation Yrotation
		JOINT LeftLeg
		{
			OFFSET	 0.000000	 0.000000	 0.569914
			CHANNELS 3 Zrotation Xrotation Yrotation
			JOINT LeftFoot
			{
				OFFSET	 0.000000	 0.000000	 0.544423
				CHANNELS 3 Zrotation Xrotation Yrotation
				JOINT LeftToeBase
				{
					OFFSET	 0.000000	 0.000000	 0.207117
					CHANNELS 3 Zrotation Xrotation Yrotation
					End Site
					{
						OFFSET	 0.000000	 0.000000	 0.207117
					}
				}
			}
		}
	}
	JOINT RightUpLeg
	{
		OFFSET	-0.124023	-0.008373	-0.065224
		CHANNELS 3 Zrotation Xrotation Yrotation
		JOINT RightLeg
		{
			OFFSET	 0.000000	 0.000000	 0.570047
			CHANNELS 3 Zrotation Xrotation Yrotation
			JOINT RightFoot
			{
				OFFSET	 0.000000	 0.000000	 0.544354
				CHANNELS 3 Zrotation Xrotation Yrotation
				JOINT RightToeBase
				{
					OFFSET	 0.000000	 0.000000	 0.207540
					CHANNELS 3 Zrotation Xrotation Yrotation
					End Site
					{
						OFFSET	 0.000000	 0.000000	 0.207540
					}
				}
			}
		}
	}
	JOINT Spine
	{
		OFFSET	 0.000184	-0.007763	 0.117403
		CHANNELS 3 Zrotation Xrotation Yrotation
		JOINT Spine1
		{
			OFFSET	 0.000000	 0.000000	 0.137269
			CHANNELS 3 Zrotation Xrotation Yrotation
			JOINT Spine2
			{
				OFFSET	 0.000000	 0.000000	 0.156879
				CHANNELS 3 Zrotation Xrotation Yrotation
				JOINT LeftShoulder
				{
					OFFSET	 0.080501	-0.002496	 0.160144
					CHANNELS 3 Zrotation Xrotation Yrotation
					JOINT LeftArm
					{
						OFFSET	 0.000000	 0.000000	 0.164363
						CHANNELS 3 Zrotation Xrotation Yrotation
						JOINT LeftForeArm
						{
							OFFSET	 0.000000	 0.000000	 0.364576
							CHANNELS 3 Zrotation Xrotation Yrotation
							JOINT LeftHand
							{
								OFFSET	 0.000000	 0.000000	 0.360812
								CHANNELS 3 Zrotation Xrotation Yrotation
								JOINT LeftHandIndex1
								{
									OFFSET	 0.000000	 0.000000	 0.086006
									CHANNELS 3 Zrotation Xrotation Yrotation
									JOINT LeftHandIndex2
									{
										OFFSET	 0.000000	 0.000000	 0.047236
										CHANNELS 3 Zrotation Xrotation Yrotation
										JOINT LeftHandIndex3
										{
											OFFSET	-0.004284	-0.000551	 0.038166
											CHANNELS 3 Zrotation Xrotation Yrotation
											End Site
											{
												OFFSET	-0.004284	-0.000551	 0.038166
											}
										}
									}
								}
							}
						}
					}
				}
				JOINT Neck
				{
					OFFSET	 0.000000	 0.000000	 0.176489
					CHANNELS 3 Zrotation Xrotation Yrotation
					JOINT Head
					{
						OFFSET	 0.000000	-0.001747	 0.077940
						CHANNELS 3 Zrotation Xrotation Yrotation
						End Site
						{
							OFFSET	 0.000000	-0.001747	 0.077940
						}
					}
				}
				JOINT RightShoulder
				{
					OFFSET	-0.080363	 0.000306	 0.159706
					CHANNELS 3 Zrotation Xrotation Yrotation
					JOINT RightArm
					{
						OFFSET	 0.000000	 0.000000	 0.164196
						CHANNELS 3 Zrotation Xrotation Yrotation
						JOINT RightForeArm
						{
							OFFSET	 0.000000	 0.000000	 0.365611
							CHANNELS 3 Zrotation Xrotation Yrotation
							JOINT RightHand
							{
								OFFSET	 0.000000	 0.000000	 0.360648
								CHANNELS 3 Zrotation Xrotation Yrotation
								JOINT RightHandIndex1
								{
									OFFSET	 0.000000	 0.000000	 0.069977
									CHANNELS 3 Zrotation Xrotation Yrotation
									JOINT RightHandIndex2
									{
										OFFSET	 0.000000	 0.000000	 0.052305
										CHANNELS 3 Zrotation Xrotation Yrotation
										JOINT RightHandIndex3
										{
											OFFSET	 0.009002	-0.000782	 0.042196
											CHANNELS 3 Zrotation Xrotation Yrotation
											End Site
											{
												OFFSET	 0.009002	-0.000782	 0.042196
											}
										}
									}
								}
							}
						}
					}
				}
			}
		}
	}
}
MOTION
Frames:    13
Frame Time: 0.03333334
-1.443682	-12.850750	 1.129652	-14.942580	 9.285312	 3.055612	 5.541114	-20.442170	 175.411300	-4.321836	-36.434540	-1.086570	-1.231583	 83.580570	-0.552850	-2.330946	 36.767040	-0.192126	-1.855367	-22.295270	-178.955400	-1.998049	-40.129510	-0.880206	-1.525419	 86.696310	 0.824888	 2.394169	 25.920870	-0.052547	-1.180597	 5.400208	-1.527460	-1.839922	 4.038094	-2.053882	-2.498939	 1.589891	-0.130708	-101.370300	 88.597370	-167.761400	 54.140640	 68.205150	-63.945760	-4.800987	-4.288556	-17.392560	 8.014214	-2.272081	-5.303902	-2.326263	-11.373080	 6.394765	-5.213516	-0.193813	 3.566525	-1.378229	 35.397820	-2.634230	 0.754264	 1.400104	 0.667882	-0.255853	 3.126619	 0.423006	 96.665310	 87.911750	 170.180200	-51.337710	 75.683420	 64.657540	-2.263636	-12.734800	 23.161020	-25.947480	-3.198396	 9.564077	-7.395616	-4.240332	-37.002850	 5.070815	-0.697434	-9.399699	-2.350882	 35.473990	 5.254307
-1.444059	-12.851220	 1.129527	-14.920890	 9.232723	 3.039574	 5.520542	-20.386100	 175.404300	-4.326211	-36.456940	-1.102708	-1.243367	 83.606160	-0.562506	-2.330378	 36.828760	-0.193671	-1.823465	-22.152590	-178.960100	-1.981024	-39.962530	-0.852217	-1.522217	 86.613380	 0.850564	 2.394505	 25.819150	-0.054679	-1.195028	 5.408391	-1.526694	-1.845824	 4.082780	-2.052217	-2.486849	 1.631728	-0.129171	-101.307300	 88.600440	-167.847800	 53.993430	 68.251390	-63.763550	-4.786192	-4.281433	-17.268220	 8.065370	-2.275539	-5.302221	-2.519645	-11.451820	 5.939744	-5.213516	-0.193813	 3.566525	-1.378229	 35.397820	-2.634230	 0.762514	 1.425138	 0.680713	-0.236615	 3.184199	 0.438530	 96.693200	 87.918130	 170.151300	-51.506980	 75.668210	 64.796130	-2.313270	-12.725660	 23.135410	-25.954050	-3.198524	 9.563763	-7.383708	-4.245586	-36.968390	 5.070815	-0.697434	-9.399699	-2.350882	 35.473990	 5.254307
-1.448962	-12.856480	 1.128886	-14.419450	 8.916877	 2.817953	 5.294875	-19.899340	 175.357800	-4.195527	-36.460240	-1.156504	-1.353227	 83.802070	-0.535083	-2.325341	 37.373060	-0.207328	-1.791492	-20.178280	-179.002200	-1.389178	-37.565480	-0.492699	-1.295455	 86.507890	 1.089468	 2.392401	 26.441170	-0.041601	-1.441904	 5.224957	-1.504543	-2.019332	 4.525780	-2.023331	-2.443218	 2.132751	-0.116241	-100.418200	 88.611110	-168.998700	 52.990010	 68.730640	-62.489680	-4.659842	-4.228840	-16.184790	 8.577583	-2.306239	-5.286487	-3.432053	-11.892360	 3.807306	-5.213516	-0.193813	 3.566525	-1.378229	 35.397820	-2.634230	 0.741262	 1.691852	 0.846259	-0.073799	 3.894011	 0.339540	 97.130430	 88.012790	 169.700000	-52.579890	 75.691180	 65.334350	-2.675543	-12.649350	 22.936460	-25.996310	-3.199538	 9.562090	-7.246336	-4.189174	-36.658460	 5.070815	-0.697434	-9.399699	-2.350882	 35.473990	 5.254307
-1.454538	-12.860380	 1.128986	-14.031790	 8.848079	 2.934170	 4.992443	-19.441620	 175.006800	-4.043933	-36.137540	-1.239346	-1.451122	 83.632960	-0.574613	-2.322169	 37.704770	-0.215728	-2.181345	-18.851970	-179.491600	-1.060026	-35.425170	-0.575240	-1.567952	 86.428070	 1.285521	 2.393635	 26.083660	-0.049130	-1.572954	 4.992245	-1.915650	-2.080853	 4.836414	-2.046551	-2.418006	 2.570651	-0.105810	-99.057680	 88.472100	-170.498100	 52.546090	 69.444590	-62.305170	-4.883188	-4.254184	-15.465390	 9.173508	-2.326618	-5.273406	-3.242730	-11.976040	 4.243388	-5.213516	-0.193813	 3.566525	-1.378229	 35.397820	-2.634230	 0.766826	 1.941072	 1.070823	-0.003323	 4.522851	 0.348011	 98.102470	 88.221390	 168.753200	-53.181440	 75.818330	 65.324040	-2.894845	-12.565890	 22.774920	-25.989730	-3.200106	 9.561825	-7.108006	-3.993324	-36.449540	 5.070815	-0.697434	-9.399699	-2.350882	 35.473990	 5.254307
-1.458949	-12.862950	 1.129521	-14.757760	 8.895210	 3.272882	 4.921188	-19.010450	 174.765700	-4.348963	-35.498420	-1.438477	-1.518908	 83.233720	-0.842031	-2.323118	 37.606270	-0.213224	-2.452345	-18.415410	-179.815600	-1.691180	-34.563590	-1.110364	-2.300998	 86.058820	 1.235053	 2.397738	 24.753640	-0.076873	-1.269564	 4.711288	-2.279509	-1.761066	 4.947846	-2.102726	-2.314269	 2.786008	-0.096922	-98.846600	 88.375990	-170.615700	 52.241300	 70.336830	-62.066650	-5.874028	-4.278275	-15.691900	 9.099565	-2.318443	-5.276790	-3.767741	-12.668140	 3.029435	-5.213516	-0.193813	 3.566525	-1.378229	 35.397820	-2.634230	 0.992226	 2.254693	 1.117439	-0.043325	 4.636554	 0.329745	 98.136050	 88.322990	 168.902900	-53.226580	 75.846410	 65.059560	-3.120526	-12.510630	 22.592990	-26.064680	-3.201819	 9.558982	-7.008058	-3.752740	-36.372220	 5.070815	-0.697434	-9.399699	-2.350882	 35.473990	 5.254307
-1.462025	-12.864130	 1.130358	-15.515980	 8.889082	 2.724392	 5.088079	-18.272680	 175.249400	-4.714559	-34.672710	-1.485519	-1.591136	 82.924130	-0.924561	-2.325312	 37.376450	-0.207410	-2.465714	-18.608910	-179.393800	-1.916226	-34.474580	-1.216720	-2.615553	 86.051370	 1.397196	 2.396955	 25.028650	-0.071168	-1.045454	 4.695149	-1.593839	-1.602106	 4.996855	-1.831974	-2.238523	 2.910222	-0.091324	-99.415040	 88.439770	-169.976600	 53.724840	 69.982560	-63.169820	-6.499718	-4.146619	-16.912930	 7.853837	-2.288046	-5.299968	-3.835226	-13.011700	 2.875621	-5.213516	-0.193813	 3.566525	-1.378229	 35.397820	-2.634230	 1.104493	 2.207653	 0.963626	-0.023775	 4.885855	 0.030747	 97.545750	 88.244640	 169.545500	-52.818280	 75.739610	 64.711590	-3.402832	-12.495290	 22.373440	-26.264270	-3.203521	 9.555362	-6.966620	-3.628149	-36.358810	 5.070815	-0.697434	-9.399699	-2.350882	 35.473990	 5.254307
-1.464348	-12.864760	 1.131397	-15.619580	 8.895461	 2.453464	 5.133929	-17.883530	 175.421500	-4.745885	-34.028610	-1.428602	-1.683340	 82.825150	-0.821618	-2.326777	 37.220260	-0.203474	-2.497732	-18.567210	-179.298000	-1.833164	-34.674290	-1.179067	-2.717416	 86.056030	 1.561216	 2.396068	 25.325520	-0.064992	-1.146086	 4.807595	-1.445179	-1.686605	 5.017326	-1.671989	-2.212373	 2.954477	-0.089403	-98.938000	 88.379360	-170.500300	 55.988900	 68.834080	-65.418820	-5.483984	-4.187952	-17.580490	 7.605237	-2.273450	-5.306611	-3.533485	-12.178460	 3.569583	-5.213516	-0.193813	 3.566525	-1.378229	 35.397820	-2.634230	 1.099777	 2.182375	 1.008112	 0.046525	 5.001106	 0.036166	 98.072400	 88.289820	 168.924400	-52.029700	 75.593890	 64.101970	-3.632679	-12.476560	 22.163980	-26.451070	-3.204681	 9.553092	-6.999661	-3.685818	-36.401050	 5.070815	-0.697434	-9.399699	-2.350882	 35.473990	 5.254307
-1.466485	-12.865890	 1.132526	-15.346040	 8.939715	 2.304669	 5.102711	-17.679510	 175.458500	-4.601669	-33.603550	-1.334993	-1.765588	 82.763370	-0.642865	-2.327819	 37.108480	-0.200661	-2.536922	-18.439440	-179.298600	-1.586258	-34.789560	-1.058024	-2.760124	 86.051960	 1.785145	 2.394767	 25.741200	-0.056314	-1.429575	 4.683580	-1.564407	-1.913497	 5.084848	-1.596647	-2.230560	 3.035298	-0.088565	-97.924150	 88.273770	-171.688900	 57.927340	 67.727140	-67.898490	-4.115358	-4.409527	-18.017260	 8.063463	-2.266232	-5.305605	-3.235649	-11.121510	 4.279126	-5.213516	-0.193813	 3.566525	-1.378229	 35.397820	-2.634230	 1.025010	 2.293547	 1.034266	 0.114738	 5.074469	 0.326388	 99.621970	 88.474020	 167.268300	-50.098480	 75.441990	 62.321250	-3.686271	-12.462070	 22.074670	-26.530750	-3.205750	 9.551392	-7.052913	-3.711740	-36.519770	 5.070815	-0.697434	-9.399699	-2.350882	 35.473990	 5.254307
-1.467543	-12.866390	 1.133146	-15.013510	 8.927329	 2.185341	 5.111490	-17.606000	 175.466100	-4.369500	-33.467120	-1.193386	-1.702438	 82.751240	-0.502791	-2.328352	 37.050180	-0.199201	-2.612380	-18.331320	-179.261900	-1.422952	-34.752910	-1.001662	-2.811999	 86.035290	 1.920343	 2.394694	 25.762860	-0.055863	-1.655079	 4.654418	-1.542289	-2.121493	 5.141716	-1.610551	-2.290314	 3.101089	-0.089623	-97.662600	 88.286620	-172.060200	 58.594260	 67.348970	-68.989400	-4.136416	-4.404551	-18.399300	 7.840527	-2.256121	-5.310629	-3.359224	-10.993610	 3.991851	-5.213516	-0.193813	 3.566525	-1.378229	 35.397820	-2.634230	 0.898836	 2.273195	 1.011873	 0.149546	 5.219970	 0.318550	 99.974780	 88.485340	 166.838800	-48.595270	 75.334800	 60.946740	-3.607154	-12.472360	 22.122210	-26.516170	-3.206352	 9.550076	-7.083722	-3.666351	-36.634360	 5.070815	-0.697434	-9.399699	-2.350882	 35.473990	 5.254307
-1.468522	-12.866960	 1.133718	-14.626250	 8.905675	 2.063029	 5.070771	-17.445740	 175.484000	-4.135352	-33.331320	-1.077182	-1.759884	 82.764400	-0.276095	-2.329125	 36.966380	-0.197107	-2.753082	-18.162560	-179.279400	-1.195359	-34.692650	-0.946630	-2.890506	 86.023590	 2.081373	 2.394746	 25.747910	-0.056176	-1.857272	 4.677938	-1.441110	-2.332220	 5.192398	-1.681779	-2.389400	 3.162743	-0.092216	-97.832000	 88.379360	-171.965100	 59.019260	 66.774470	-69.724880	-4.184713	-4.396101	-19.250840	 7.375865	-2.233838	-5.321137	-3.343926	-10.744380	 4.032485	-5.213516	-0.193813	 3.566525	-1.378229	 35.397820	-2.634230	 0.719425	 2.132643	 1.100668	 0.169903	 5.455950	-0.053997	 99.562260	 88.391370	 167.165600	-46.674800	 75.195920	 59.208920	-3.357337	-12.487510	 22.299560	-26.382710	-3.206121	 9.550935	-7.125592	-3.579187	-36.809870	 5.070815	-0.697434	-9.399699	-2.350882	 35.473990	 5.254307
-1.469203	-12.867420	 1.134016	-14.320160	 8.936158	 2.062860	 5.007873	-17.331690	 175.456700	-3.950186	-33.164840	-1.000433	-1.813441	 82.805360	-0.119874	-2.330243	 36.844460	-0.194057	-2.811442	-17.999940	-179.317400	-1.006806	-34.627230	-0.872863	-2.952437	 86.021220	 2.253924	 2.394684	 25.767380	-0.055761	-1.963071	 4.633416	-1.428786	-2.456346	 5.182964	-1.772608	-2.482113	 3.162811	-0.095794	-98.227420	 88.482120	-171.594500	 59.040590	 66.037470	-70.146530	-3.895440	-4.573504	-20.668190	 7.207165	-2.201914	-5.332387	-3.327604	-10.602500	 4.073783	-5.213516	-0.193813	 3.566525	-1.378229	 35.397820	-2.634230	 0.591041	 2.123569	 1.027902	 0.124023	 5.453510	-0.158043	 99.041540	 88.298200	 167.652300	-44.903210	 75.039220	 57.689260	-2.861706	-12.467340	 22.625560	-26.029410	-3.204988	 9.554570	-7.165588	-3.505918	-36.970330	 5.070815	-0.697434	-9.399699	-2.350882	 35.473990	 5.254307
-1.469332	-12.867390	 1.134255	-14.121180	 8.958632	 2.040480	 5.040828	-17.339370	 175.455600	-3.835208	-33.048680	-0.914062	-1.882911	 82.868950	 0.073926	-2.330581	 36.806980	-0.193120	-2.807473	-18.011500	-179.276100	-0.886706	-34.571000	-0.800414	-3.025140	 86.025760	 2.436490	 2.394386	 25.856490	-0.053898	-2.006562	 4.612368	-1.349786	-2.531484	 5.166806	-1.820674	-2.564378	 3.165822	-0.098902	-98.617450	 88.550710	-171.194500	 58.500790	 65.531360	-70.116700	-4.043455	-4.692005	-22.102700	 6.905435	-2.172895	-5.342690	-3.774963	-11.045290	 3.015300	-5.213516	-0.193813	 3.566525	-1.378229	 35.397820	-2.634230	 0.487964	 2.080061	 0.956445	 0.068419	 5.490367	-0.280082	 98.545520	 88.214250	 168.141500	-43.675570	 74.841540	 56.805600	-2.352605	-12.470690	 23.044260	-25.642310	-3.202957	 9.558794	-7.192942	-3.501432	-37.044970	 5.070815	-0.697434	-9.399699	-2.350882	 35.473990	 5.254307
-1.468967	-12.867080	 1.134489	-14.014510	 8.948769	 2.006850	 5.057093	-17.384810	 175.467700	-3.755384	-32.986040	-0.857312	-1.951267	 82.943980	 0.224889	-2.330580	 36.807150	-0.193124	-2.781088	-18.054930	-179.288300	-0.782627	-34.532940	-0.729179	-3.115428	 86.035330	 2.635772	 2.394165	 25.924480	-0.052474	-2.008338	 4.646257	-1.252190	-2.560228	 5.147029	-1.833409	-2.609967	 3.136328	-0.101333	-98.943470	 88.598910	-170.853300	 57.370340	 65.359100	-69.503750	-4.580649	-4.760346	-23.404780	 6.571172	-2.153031	-5.349810	-3.253614	-11.361690	 4.231677	-5.213516	-0.193813	 3.566525	-1.378229	 35.397820	-2.634230	 0.432312	 1.927570	 0.905644	 0.033602	 5.571599	-0.394676	 98.116020	 88.138800	 168.573900	-43.236100	 74.533700	 56.795520	-2.056478	-12.552790	 23.536490	-25.358430	-3.199939	 9.563698	-7.202498	-3.613592	-36.983280	 5.070815	-0.697434	-9.399699	-2.350882	 35.473990	 5.254307
